<?xml version="1.0" encoding="UTF-8" standalone="no"?>
<!-- Created with Inkscape (http://www.inkscape.org/) -->

<svg
   width="40.789314mm"
   height="56.461948mm"
   viewBox="0 0 40.789314 56.461948"
   version="1.1"
   id="svg1"
   xml:space="preserve"
   sodipodi:docname="lsf.svg"
   xmlns:inkscape="http://www.inkscape.org/namespaces/inkscape"
   xmlns:sodipodi="http://sodipodi.sourceforge.net/DTD/sodipodi-0.dtd"
   xmlns="http://www.w3.org/2000/svg"
   xmlns:svg="http://www.w3.org/2000/svg"><sodipodi:namedview
     id="namedview1"
     pagecolor="#ffffff"
     bordercolor="#666666"
     borderopacity="1.0"
     inkscape:showpageshadow="2"
     inkscape:pageopacity="0.0"
     inkscape:pagecheckerboard="0"
     inkscape:deskcolor="#d1d1d1"
     inkscape:document-units="mm"
     showgrid="false"><inkscape:page
       x="0"
       y="0"
       width="40.789314"
       height="56.461948"
       id="page1"
       margin="0"
       bleed="0" /></sodipodi:namedview><defs
     id="defs1" /><g
     inkscape:label="Calque 1"
     inkscape:groupmode="layer"
     id="layer1"
     transform="translate(-79.711852,-40.15313)"><path
       style="fill:#000000"
       d="m 104.77443,95.770443 0.56237,-0.858288 -0.39266,-0.733692 c -0.21597,-0.403531 -2.13905,-1.609538 -4.27352,-2.680015 -3.989186,-2.000658 -4.683286,-2.654912 -3.777526,-3.560677 l 0.52236,-0.522362 2.25991,0.891559 c 1.242946,0.490357 3.529896,1.225124 5.082126,1.632815 1.55222,0.407691 3.75348,1.053779 4.8917,1.435752 l 2.06947,0.694495 0.84094,-0.551004 c 0.95508,-0.625791 1.08914,-1.647252 0.31747,-2.418921 -0.2879,-0.287907 -3.02634,-1.509599 -6.08541,-2.714873 -6.55991,-2.584602 -6.1076,-2.355851 -5.87205,-2.969689 0.31318,-0.81611 1.10613,-0.906926 3.40664,-0.390156 1.20732,0.271203 4.45467,0.686412 7.21633,0.922687 l 5.0212,0.42959 0.53505,-0.444051 c 0.68502,-0.568518 0.68795,-1.918247 0.006,-2.600555 -0.56939,-0.569387 -1.40915,-0.768324 -9.52477,-2.256388 l -5.29166,-0.970271 v -0.881195 -0.881195 l 6.18811,-0.393795 c 3.40343,-0.216587 6.53838,-0.50498 6.96654,-0.640874 0.89557,-0.284242 1.40506,-1.805707 0.88269,-2.635905 l -0.3541,-0.562759 -8.78187,-0.210497 c -4.83004,-0.115773 -9.059696,-0.331195 -9.399236,-0.478715 -1.15493,-0.501769 -0.62137,-1.181662 2.246986,-2.863268 3.67631,-2.155273 4.89676,-3.196701 4.89676,-4.178497 0,-0.941235 -1.36476,-2.32319 -2.29428,-2.32319 -0.75531,0 -10.969536,4.334359 -15.106766,6.410479 -3.15922,1.585344 -5.60185,3.679147 -6.70155,5.744498 0,0 -0.59828,0.912861 -0.75978,1.426968 -0.30172,0.96044 -0.35872,1.991895 -0.36005,2.998611 -0.001,1.006401 0.35205,2.998611 0.35205,2.998611 l 0.98428,2.004343 c 1.2448,2.534843 2.73261,3.836495 6.55539,5.735167 1.67402,0.83144 5.56768,2.803622 8.65259,4.382627 6.176166,3.161269 7.553326,3.486623 8.519126,2.01263 z m 5.5719,-25.761554 c 0.78388,-0.279496 2.48525,-1.574719 4.03441,-3.071322 6.69472,-6.467574 6.78554,-6.598444 5.43022,-7.824993 -1.22456,-1.108211 -2.10552,-0.708456 -5.37932,2.440972 -3.11432,2.996004 -4.23045,3.535317 -4.49317,2.171095 -0.0706,-0.366693 1.35829,-2.504443 3.52372,-5.27175 4.85371,-6.202769 5.23002,-6.774691 5.23002,-7.948777 0,-1.207134 -0.56763,-1.85316 -1.62829,-1.85316 -0.56702,0 -1.6787,1.089618 -4.04909,3.96875 -1.79712,2.182812 -3.74481,4.482781 -4.32821,5.111041 l -1.06072,1.142292 -0.62731,-0.567714 -0.62732,-0.567713 0.47077,-1.103745 c 0.25893,-0.60706 1.51318,-2.814489 2.78721,-4.905398 1.27404,-2.090909 2.649,-4.690498 3.05546,-5.776864 l 0.73902,-1.975211 -0.54889,-0.837719 c -0.97898,-1.494108 -2.07274,-1.103074 -3.82404,1.367142 -0.85975,1.212673 -1.99879,3.077986 -2.53122,4.145139 -0.53242,1.067152 -1.62144,2.939325 -2.42005,4.160384 l -1.45201,2.220106 -0.88529,-0.10344 c -1.19089,-0.139146 -1.13565,-0.506497 1.01521,-6.751103 1.97752,-5.741315 2.17211,-7.065043 1.12129,-7.627424 -1.86202,-0.996524 -3.23195,-0.09085 -3.71654,2.457032 -0.321066,1.688114 -4.780966,14.885843 -5.215616,15.434028 -0.49489,0.62417 -1.91071,0.547654 -2.16578,-0.117047 -0.11777,-0.306911 -0.21413,-0.970847 -0.21413,-1.475414 0,-2.684898 -0.85304,-7.286267 -1.46406,-7.897287 -0.8588,-0.858806 -1.89005,-0.826283 -2.80479,0.08845 l -0.74107,0.741067 0.20398,3.404071 c 0.11219,1.87224 0.30398,5.446856 0.42621,7.943593 l 0.22224,4.539522 1.46669,-0.165318 c 0.80669,-0.09092 3.81194,-1.141522 6.67835,-2.334661 2.8664,-1.193138 5.694026,-2.169342 6.283616,-2.169342 0.71446,0 1.41591,0.343927 2.10318,1.031196 2.0507,2.0507 1.04521,4.216583 -2.99688,6.45545 -1.14829,0.636025 -2.153706,1.354847 -2.234256,1.597382 l -0.14646,0.440972 4.703706,-0.01548 c 3.0507,-0.01004 5.18006,-0.185335 6.05921,-0.498802 z"
       id="path1-3"
       sodipodi:nodetypes="ccssscssscsssssscscscccssscsssssssaacsssccsssssssssscccssscsssscssssssssscsscsssssscss" /></g></svg>
