<?xml version="1.0" encoding="UTF-8" standalone="no"?>
<!-- Created with Inkscape (http://www.inkscape.org/) -->

<svg
   width="41.534931mm"
   height="41.534935mm"
   viewBox="0 0 41.534931 41.534935"
   version="1.1"
   id="svg1"
   xml:space="preserve"
   inkscape:export-filename="penguin.svg"
   inkscape:export-xdpi="200"
   inkscape:export-ydpi="200"
   xmlns:inkscape="http://www.inkscape.org/namespaces/inkscape"
   xmlns:sodipodi="http://sodipodi.sourceforge.net/DTD/sodipodi-0.dtd"
   xmlns="http://www.w3.org/2000/svg"
   xmlns:svg="http://www.w3.org/2000/svg"><sodipodi:namedview
     id="namedview1"
     pagecolor="#ffffff"
     bordercolor="#666666"
     borderopacity="1.0"
     inkscape:showpageshadow="2"
     inkscape:pageopacity="0.0"
     inkscape:pagecheckerboard="0"
     inkscape:deskcolor="#d1d1d1"
     inkscape:document-units="mm"><inkscape:page
       x="0"
       y="-2.0871944e-31"
       width="41.534931"
       height="41.534935"
       id="page2"
       margin="0"
       bleed="0" /></sodipodi:namedview><defs
     id="defs1" /><g
     inkscape:label="Calque 1"
     inkscape:groupmode="layer"
     id="layer1"><g
       id="g4"
       transform="translate(-55.330937,-77.808949)"><path
         style="fill:#ff0000"
         d="m 68.060366,114.80342 c -0.09597,-0.096 0.230753,-0.66904 0.726053,-1.27349 1.478895,-1.8048 1.520101,-2.08257 1.070407,-7.21585 -0.95629,-10.916077 0.100488,-17.365164 3.563417,-21.746098 1.414497,-1.789473 2.6574,-2.518879 3.914263,-2.297111 0.540188,0.09531 1.696535,0.268251 2.56966,0.384305 0.873125,0.116055 1.346102,0.229164 1.051059,0.251354 -1.756145,0.132079 -2.371746,2.205085 -1.308399,4.405971 1.863934,3.857919 1.16567,15.058659 -1.332253,21.370459 -0.504025,1.27358 -0.500281,2.16735 0.01235,2.94973 0.223924,0.34176 0.372752,0.78405 0.330729,0.98288 -0.05812,0.27497 0.231037,0.34181 1.207791,0.27923 1.355775,-0.0869 1.738701,0.54045 0.413679,0.67769 -2.502764,0.25924 -3.333726,0.13018 -4.472334,-0.69463 -1.660384,-1.20277 -2.431041,-1.11019 -4.129452,0.4961 -0.904343,0.85529 -1.630552,1.32291 -2.054446,1.32291 -0.360612,0 -0.820442,0.0632 -1.021846,0.14052 -0.201404,0.0773 -0.444711,0.062 -0.540682,-0.034 z m 10.086552,-1.8823 c 0.183034,-0.32706 0.09817,-0.72259 -0.30552,-1.42402 l -0.558942,-0.97119 0.85238,-2.74316 c 2.358546,-7.59037 2.888529,-16.647922 1.17455,-20.073374 l -0.728137,-1.455209 -0.750782,0.05299 c -1.148612,0.08106 -1.425466,0.463766 -2.328122,3.218246 -1.021788,3.118011 -1.090142,4.952781 -0.292126,7.841269 0.809825,2.931228 0.788145,5.320838 -0.06352,7.001528 -1.068319,2.10822 -1.449175,1.85756 -1.456627,-0.95869 -0.0033,-1.26568 -0.374243,-2.7029 -1.448303,-5.612178 l -0.427086,-1.15684 0.551331,-1.057752 c 0.635946,-1.22009 0.456404,-1.686911 -0.293186,-0.762299 -0.828177,1.021548 -0.879291,1.787146 -0.23726,3.553739 0.987329,2.7167 1.207858,4.80335 0.713514,6.75127 -0.536101,2.11246 -0.386451,2.51871 1.758625,4.77403 0.917904,0.96508 1.935643,2.14164 2.261643,2.61458 0.657514,0.95389 1.194071,1.09233 1.57757,0.40706 z m -0.49171,-29.453381 c 0,-0.624044 -0.699703,-0.985327 -1.11125,-0.57378 -0.411547,0.411547 -0.05027,1.11125 0.573779,1.11125 0.36385,0 0.537471,-0.173621 0.537471,-0.53747 z"
         id="path3"
         sodipodi:nodetypes="csssssssssscsssssccsscsscsssscscssssssssssss" /><circle
         style="fill:none;stroke:#8c0000;stroke-width:0.499999;stroke-linejoin:bevel;stroke-miterlimit:7.31719;stroke-opacity:1"
         id="path4"
         cx="76.098404"
         cy="98.576416"
         r="20.517467" /></g></g></svg>
